<svg width="57" height="79" viewBox="0 0 57 79" fill="none" xmlns="http://www.w3.org/2000/svg">
<path d="M27.8291 66.6611C25.29 66.6611 22.7754 66.3682 20.2852 65.7822C17.8438 65.1963 15.5 64.3418 13.2539 63.2188C11.0078 62.0469 9.03027 60.5088 7.32129 58.6045C5.6123 56.7002 4.68457 54.4297 4.53809 51.793V48.7168V47.6182C4.53809 46.251 5.02637 45.1279 6.00293 44.249C7.02832 43.3213 8.22461 42.8574 9.5918 42.8574C12.5215 43.1016 14.1084 44.6885 14.3525 47.6182V49.5225C14.4502 51.0361 15.0117 52.3057 16.0371 53.3311C17.1113 54.3076 18.2832 55.0889 19.5527 55.6748C20.8711 56.2607 22.2139 56.7002 23.5811 56.9932C24.9971 57.2861 26.4131 57.4326 27.8291 57.4326C29.2451 57.4326 30.6367 57.2861 32.0039 56.9932C33.4199 56.7002 34.7627 56.2607 36.0322 55.6748C37.3506 55.0889 38.5225 54.3076 39.5479 53.3311C40.6221 52.3057 41.208 51.0361 41.3057 49.5225V25.3525C41.3057 23.9854 41.7939 22.8623 42.7705 21.9834C43.7959 21.0557 44.9922 20.5918 46.3594 20.5918C49.2891 20.8359 50.9004 22.4229 51.1934 25.3525V48.7168V51.793C51.0469 54.4297 50.0947 56.7002 48.3369 58.6045C46.6279 60.5088 44.6504 62.0469 42.4043 63.2188C40.1582 64.3418 37.79 65.1963 35.2998 65.7822C32.8584 66.3682 30.3682 66.6611 27.8291 66.6611Z" fill="#FEAF60"/>
<path d="M27.8228 64.8877C25.2837 64.8877 22.769 64.5947 20.2788 64.0088C17.8374 63.4229 15.4937 62.5684 13.2476 61.4453C11.0015 60.2734 9.02393 58.7354 7.31494 56.8311C5.60596 54.9268 4.67822 52.6562 4.53174 50.0195V46.9434V45.8447C4.53174 44.4775 5.02002 43.3545 5.99658 42.4756C7.02197 41.5479 8.21826 41.084 9.58545 41.084C12.5151 41.3281 14.1021 42.915 14.3462 45.8447V47.749C14.4438 49.2627 15.0054 50.5322 16.0308 51.5576C17.105 52.5342 18.2769 53.3154 19.5464 53.9014C20.8647 54.4873 22.2075 54.9268 23.5747 55.2197C24.9907 55.5127 26.4067 55.6592 27.8228 55.6592C29.2388 55.6592 30.6304 55.5127 31.9976 55.2197C33.4136 54.9268 34.7563 54.4873 36.0259 53.9014C37.3442 53.3154 38.5161 52.5342 39.5415 51.5576C40.6157 50.5322 41.2017 49.2627 41.2993 47.749V23.5791C41.2993 22.2119 41.7876 21.0889 42.7642 20.21C43.7896 19.2822 44.9858 18.8184 46.353 18.8184C49.2827 19.0625 50.894 20.6494 51.187 23.5791V46.9434V50.0195C51.0405 52.6562 50.0884 54.9268 48.3306 56.8311C46.6216 58.7354 44.644 60.2734 42.3979 61.4453C40.1519 62.5684 37.7837 63.4229 35.2935 64.0088C32.8521 64.5947 30.3618 64.8877 27.8228 64.8877Z" fill="#FFE26F"/>
<path d="M28.1465 54.9102C26.9277 54.9102 25.7207 54.7695 24.5254 54.4883C23.3535 54.207 22.2285 53.7969 21.1504 53.2578C20.0723 52.6953 19.123 51.957 18.3027 51.043C17.4824 50.1289 17.0371 49.0391 16.9668 47.7734V46.2969V45.7695C16.9668 45.1133 17.2012 44.5742 17.6699 44.1523C18.1621 43.707 18.7363 43.4844 19.3926 43.4844C20.7988 43.6016 21.5605 44.3633 21.6777 45.7695V46.6836C21.7246 47.4102 21.9941 48.0195 22.4863 48.5117C23.002 48.9805 23.5645 49.3555 24.1738 49.6367C24.8066 49.918 25.4512 50.1289 26.1074 50.2695C26.7871 50.4102 27.4668 50.4805 28.1465 50.4805C28.8262 50.4805 29.4941 50.4102 30.1504 50.2695C30.8301 50.1289 31.4746 49.918 32.084 49.6367C32.7168 49.3555 33.2793 48.9805 33.7715 48.5117C34.2871 48.0195 34.5684 47.4102 34.6152 46.6836V35.082C34.6152 34.4258 34.8496 33.8867 35.3184 33.4648C35.8105 33.0195 36.3848 32.7969 37.041 32.7969C38.4473 32.9141 39.2207 33.6758 39.3613 35.082V46.2969V47.7734C39.291 49.0391 38.834 50.1289 37.9902 51.043C37.1699 51.957 36.2207 52.6953 35.1426 53.2578C34.0645 53.7969 32.9277 54.207 31.7324 54.4883C30.5605 54.7695 29.3652 54.9102 28.1465 54.9102Z" fill="#FFBE7D"/>
<circle cx="35.8687" cy="14.9995" r="6.99268" fill="#FEAF60"/>
</svg>
